<svg width="23" height="23" viewBox="0 0 23 23" fill="none" xmlns="http://www.w3.org/2000/svg">
<g clip-path="url(#clip0_22_1447)">
<path fill-rule="evenodd" clip-rule="evenodd" d="M1.4375 11.5C1.4375 14.1687 2.49765 16.7282 4.38474 18.6153C6.27182 20.5023 8.83126 21.5625 11.5 21.5625C14.1687 21.5625 16.7282 20.5023 18.6153 18.6153C20.5023 16.7282 21.5625 14.1687 21.5625 11.5C21.5625 8.83126 20.5023 6.27182 18.6153 4.38474C16.7282 2.49765 14.1687 1.4375 11.5 1.4375C8.83126 1.4375 6.27182 2.49765 4.38474 4.38474C2.49765 6.27182 1.4375 8.83126 1.4375 11.5ZM23 11.5C23 14.55 21.7884 17.4751 19.6317 19.6317C17.4751 21.7884 14.55 23 11.5 23C8.45001 23 5.52494 21.7884 3.36827 19.6317C1.2116 17.4751 0 14.55 0 11.5C0 8.45001 1.2116 5.52494 3.36827 3.36827C5.52494 1.2116 8.45001 0 11.5 0C14.55 0 17.4751 1.2116 19.6317 3.36827C21.7884 5.52494 23 8.45001 23 11.5ZM6.46875 10.7812C6.27813 10.7812 6.09531 10.857 5.96052 10.9918C5.82573 11.1266 5.75 11.3094 5.75 11.5C5.75 11.6906 5.82573 11.8734 5.96052 12.0082C6.09531 12.143 6.27813 12.2188 6.46875 12.2188H14.7962L11.7099 15.3036C11.643 15.3705 11.59 15.4498 11.5539 15.5371C11.5177 15.6244 11.4991 15.718 11.4991 15.8125C11.4991 15.907 11.5177 16.0006 11.5539 16.0879C11.59 16.1752 11.643 16.2545 11.7099 16.3214C11.7767 16.3882 11.856 16.4412 11.9433 16.4774C12.0307 16.5135 12.1242 16.5322 12.2188 16.5322C12.3133 16.5322 12.4068 16.5135 12.4942 16.4774C12.5815 16.4412 12.6608 16.3882 12.7276 16.3214L17.0401 12.0089C17.1071 11.9421 17.1602 11.8628 17.1964 11.7755C17.2326 11.6882 17.2513 11.5945 17.2513 11.5C17.2513 11.4055 17.2326 11.3118 17.1964 11.2245C17.1602 11.1372 17.1071 11.0579 17.0401 10.9911L12.7276 6.67863C12.6608 6.6118 12.5815 6.55879 12.4942 6.52262C12.4068 6.48646 12.3133 6.46784 12.2188 6.46784C12.1242 6.46784 12.0307 6.48646 11.9433 6.52262C11.856 6.55879 11.7767 6.6118 11.7099 6.67863C11.643 6.74545 11.59 6.82479 11.5539 6.9121C11.5177 6.99941 11.4991 7.09299 11.4991 7.1875C11.4991 7.28201 11.5177 7.37559 11.5539 7.4629C11.59 7.55021 11.643 7.62955 11.7099 7.69637L14.7962 10.7812H6.46875Z" fill="white"/>
</g>
<defs>
<clipPath id="clip0_22_1447">
<rect width="23" height="23" fill="white"/>
</clipPath>
</defs>
</svg>
