<svg width="55" height="55" viewBox="0 0 55 55" fill="none" xmlns="http://www.w3.org/2000/svg">
<path d="M27.5 0C34.7935 0 41.7882 2.89731 46.9454 8.05456C52.1027 13.2118 55 20.2065 55 27.5C55 34.7935 52.1027 41.7882 46.9454 46.9454C41.7882 52.1027 34.7935 55 27.5 55C20.2065 55 13.2118 52.1027 8.05456 46.9454C2.89731 41.7882 0 34.7935 0 27.5C0 20.2065 2.89731 13.2118 8.05456 8.05456C13.2118 2.89731 20.2065 0 27.5 0ZM15.4688 25.7812C15.0129 25.7812 14.5757 25.9623 14.2534 26.2847C13.9311 26.607 13.75 27.0442 13.75 27.5C13.75 27.9558 13.9311 28.393 14.2534 28.7153C14.5757 29.0377 15.0129 29.2188 15.4688 29.2188H35.3822L28.0019 36.5956C27.8421 36.7554 27.7153 36.9451 27.6288 37.1539C27.5423 37.3627 27.4978 37.5865 27.4978 37.8125C27.4978 38.0385 27.5423 38.2623 27.6288 38.4711C27.7153 38.6799 27.8421 38.8696 28.0019 39.0294C28.1617 39.1892 28.3514 39.3159 28.5602 39.4024C28.769 39.4889 28.9928 39.5334 29.2188 39.5334C29.4447 39.5334 29.6685 39.4889 29.8773 39.4024C30.0861 39.3159 30.2758 39.1892 30.4356 39.0294L40.7481 28.7169C40.9082 28.5572 41.0352 28.3675 41.1218 28.1587C41.2085 27.9499 41.2531 27.7261 41.2531 27.5C41.2531 27.2739 41.2085 27.0501 41.1218 26.8413C41.0352 26.6324 40.9082 26.4428 40.7481 26.2831L30.4356 15.9706C30.1129 15.6479 29.6752 15.4666 29.2188 15.4666C28.7623 15.4666 28.3246 15.6479 28.0019 15.9706C27.6791 16.2934 27.4978 16.7311 27.4978 17.1875C27.4978 17.6439 27.6791 18.0816 28.0019 18.4044L35.3822 25.7812H15.4688Z" fill="#18C965" fill-opacity="0.43"/>
</svg>
