<svg width="37" height="26" viewBox="0 0 37 26" fill="none" xmlns="http://www.w3.org/2000/svg">
<g clip-path="url(#clip0_22_1416)">
<path d="M18.6191 0H18.8249C20.7259 0.00694012 30.3581 0.0763417 32.9552 0.77498C33.7403 0.9882 34.4557 1.40381 35.03 1.98027C35.6042 2.55673 36.0172 3.27385 36.2276 4.05997C36.4612 4.93905 36.6254 6.10268 36.7364 7.30332L36.7595 7.54391L36.8104 8.14539L36.8289 8.38598C36.9792 10.5004 36.9977 12.4806 37 12.9132V13.0868C36.9977 13.5355 36.9769 15.65 36.8104 17.8523L36.7919 18.0952L36.771 18.3358C36.6554 19.659 36.4843 20.973 36.2276 21.94C36.0172 22.7262 35.6042 23.4433 35.03 24.0197C34.4557 24.5962 33.7403 25.0118 32.9552 25.225C30.2725 25.9468 20.0761 25.9977 18.663 26H18.3346C17.62 26 14.6645 25.9861 11.5655 25.8797L11.1724 25.8658L10.9712 25.8566L10.5757 25.8404L10.1803 25.8242C7.61323 25.7108 5.16876 25.5281 4.0425 25.2227C3.25765 25.0097 2.5424 24.5944 1.96818 24.0184C1.39395 23.4424 0.980846 22.7257 0.770111 21.94C0.513407 20.9754 0.342271 19.659 0.226639 18.3358L0.208138 18.0929L0.189637 17.8523C0.0748451 16.2848 0.0115986 14.7139 0 13.1423L0 12.8577C0.00462529 12.3604 0.0231264 10.6415 0.148009 8.74455L0.164198 8.50627L0.171136 8.38598L0.189637 8.14539L0.240515 7.54391L0.263641 7.30332C0.374648 6.10268 0.538846 4.93674 0.772423 4.05997C0.982805 3.27385 1.39576 2.55673 1.97 1.98027C2.54425 1.40381 3.25969 0.9882 4.04482 0.77498C5.17107 0.474242 7.61554 0.289171 10.1826 0.173503L10.5757 0.157309L10.9735 0.143429L11.1724 0.136489L11.5678 0.120296C13.7688 0.0495145 15.9707 0.0101829 18.1728 0.00231348L18.6191 0ZM14.8009 7.42593V18.5718L24.4146 13.0012L14.8009 7.42593Z" fill="black"/>
</g>
<defs>
<clipPath id="clip0_22_1416">
<rect width="37" height="26" fill="white"/>
</clipPath>
</defs>
</svg>
